<?xml version="1.0" standalone="no"?>
<!DOCTYPE svg PUBLIC "-//W3C//DTD SVG 20010904//EN"
 "http://www.w3.org/TR/2001/REC-SVG-20010904/DTD/svg10.dtd">
<svg version="1.0" xmlns="http://www.w3.org/2000/svg"
 width="700.000000pt" height="700.000000pt" viewBox="0 0 700.000000 700.000000"
 preserveAspectRatio="xMidYMid meet">
<metadata>
Created by potrace 1.14, written by Peter Selinger 2001-2017
</metadata>
<g transform="translate(0.000000,700.000000) scale(0.100000,-0.100000)"
fill="#000000" stroke="none">
<path d="M3367 6824 c-1 -1 -49 -5 -106 -8 -88 -6 -201 -18 -276 -30 -435 -73
-821 -213 -1185 -430 -103 -61 -263 -168 -305 -203 -5 -5 -30 -24 -55 -43
-164 -128 -363 -323 -501 -490 -222 -268 -398 -565 -529 -895 -34 -85 -59
-131 -85 -158 -132 -136 -182 -350 -124 -529 9 -28 9 -58 0 -128 -16 -129 -25
-275 -24 -420 0 -119 10 -306 17 -346 16 -81 17 -154 2 -204 -24 -87 -25 -196
-2 -275 2 -5 7 -23 11 -40 13 -46 74 -145 117 -188 26 -27 49 -66 70 -121 17
-44 48 -119 69 -164 22 -46 39 -86 39 -89 0 -3 32 -64 71 -136 76 -141 227
-373 307 -472 l48 -60 -58 -69 c-116 -138 -163 -273 -162 -461 1 -139 26 -232
91 -345 79 -135 239 -263 388 -310 185 -59 356 -43 545 50 93 45 347 178 377
196 19 12 31 10 100 -20 151 -64 442 -158 566 -181 12 -3 56 -11 97 -19 41 -9
93 -18 115 -21 45 -5 111 -16 137 -21 119 -22 635 -21 743 1 11 2 45 7 76 10
31 3 67 8 80 10 13 3 38 7 54 10 17 3 53 10 80 15 28 6 59 12 70 14 74 15 285
75 385 111 648 232 1214 661 1603 1215 37 52 72 100 77 107 6 7 10 15 10 18 0
4 15 30 34 58 102 155 231 426 307 647 38 110 111 376 123 450 3 19 7 44 10
55 2 11 9 61 16 110 6 50 14 101 16 115 22 134 22 598 0 715 -2 11 -7 47 -11
80 -4 32 -8 66 -10 75 -1 8 -6 35 -10 60 -4 25 -9 54 -11 65 -2 11 -7 34 -10
50 -46 259 -197 661 -347 929 l-50 89 31 62 c44 86 62 139 76 225 25 150 4
286 -66 425 -39 79 -68 118 -142 190 -75 73 -165 127 -271 162 -69 23 -97 26
-210 27 -116 0 -139 -3 -210 -27 -44 -15 -92 -34 -107 -43 -27 -14 -30 -13
-100 34 -238 159 -511 295 -778 388 -122 42 -377 108 -476 124 -113 18 -117
18 -169 26 -27 3 -58 8 -67 10 -60 10 -491 26 -501 18z m368 -358 c44 -4 94
-9 110 -11 17 -2 48 -6 70 -9 211 -27 483 -100 710 -191 126 -51 407 -194 420
-215 3 -4 -17 -17 -43 -28 -26 -11 -105 -48 -177 -82 -158 -75 -189 -90 -480
-225 -126 -59 -264 -123 -305 -142 -41 -20 -102 -48 -135 -63 -33 -15 -100
-47 -150 -70 -49 -23 -124 -58 -165 -77 -41 -20 -108 -51 -147 -69 -187 -87
-233 -109 -303 -141 -344 -158 -389 -184 -473 -266 -80 -80 -100 -107 -143
-192 -103 -210 -94 -465 23 -662 35 -60 69 -102 227 -277 39 -43 78 -87 86
-96 13 -15 88 -97 190 -210 52 -57 190 -210 440 -489 110 -123 110 -123 104
-132 -3 -5 -9 -9 -14 -9 -4 0 -70 -33 -146 -73 -77 -41 -197 -104 -269 -142
-71 -37 -152 -80 -180 -95 -27 -15 -108 -58 -180 -95 -71 -37 -161 -85 -200
-105 -38 -21 -122 -65 -185 -98 -128 -67 -626 -328 -765 -402 -49 -26 -139
-73 -200 -105 -60 -32 -134 -71 -163 -87 -29 -16 -57 -28 -61 -26 -19 7 -171
210 -243 323 -96 153 -202 360 -192 376 3 5 13 9 23 9 49 0 167 71 651 393
663 441 632 418 687 488 122 153 150 354 76 534 -25 60 -88 147 -136 187 -41
35 -1093 739 -1152 771 -49 27 -106 47 -131 47 -13 0 -24 5 -24 11 0 15 118
250 136 270 8 8 14 19 14 23 0 20 181 278 275 392 76 92 320 331 420 411 89
72 287 213 299 213 2 0 33 17 67 39 214 129 495 245 769 316 145 38 350 70
515 81 55 4 101 7 102 8 5 4 276 -3 348 -8z m2406 -1596 c154 -300 266 -653
305 -955 3 -22 7 -53 9 -70 23 -153 23 -547 1 -685 -3 -14 -7 -47 -10 -75 -3
-27 -10 -75 -16 -105 -6 -30 -13 -66 -16 -80 -47 -255 -172 -592 -314 -845
-216 -388 -539 -745 -901 -998 -188 -131 -449 -267 -674 -351 -122 -45 -364
-112 -470 -130 -77 -13 -165 -25 -220 -31 -33 -3 -80 -8 -105 -11 -111 -13
-454 -6 -575 11 -16 3 -46 7 -65 9 -113 13 -295 53 -455 99 -104 31 -104 28
-13 75 89 45 271 140 433 226 121 65 231 123 390 206 66 35 152 80 190 100 39
20 113 60 165 87 52 28 133 71 180 95 47 25 139 74 205 108 66 34 161 84 210
110 50 26 137 72 195 103 572 300 530 276 612 353 101 94 168 209 202 344 19
79 26 183 15 248 -15 97 -20 114 -45 178 -47 117 -68 143 -413 523 -42 46 -83
92 -92 103 -9 10 -50 55 -91 101 -41 45 -92 102 -114 127 -21 25 -46 52 -54
60 -8 8 -53 58 -100 110 -47 52 -99 111 -117 130 -57 64 -83 95 -83 101 0 4
17 14 38 22 37 15 91 40 287 132 102 48 187 88 308 144 157 72 196 91 277 129
47 22 126 59 175 82 183 86 277 130 280 130 2 0 232 108 340 160 33 16 64 28
69 27 5 -2 30 -45 57 -97z m-5447 -1295 c58 -38 106 -72 106 -75 0 -3 -60 -44
-133 -92 l-132 -88 -5 27 c-4 24 -5 124 -1 281 l1 54 29 -19 c15 -10 76 -49
135 -88z"/>
</g>
</svg>
