<?xml version="1.0" encoding="UTF-8" standalone="no"?>
<svg xmlns="http://www.w3.org/2000/svg" xmlns:xlink="http://www.w3.org/1999/xlink" xmlns:svg="http://www.w3.org/2000/svg" version="1.1" baseProfile="full" width="7200" height="400" viewBox="0 0 7200 400" stroke-width="10" stroke="rgb(167,163,192)" fill="none" preserveAspectRatio="xMidYMid meet">

<summary>logo</summary>
<circle stroke-width="20" cx="200" cy="200" r="180" />
<g stroke="rgb(45,45,18)" stroke-linecap="round" stroke-linejoin="round">
<path stroke-width="80" d="M 330,80 180,150 270,250 80,350" />
<path stroke-width="60" d="M 40,160 100,200 40,240" />
</g>


<summary>facebook 400</summary>
<g stroke-width="3" transform="translate(400,0)">
<circle stroke="none" fill="rgba(167,163,192,1)" cx="200" cy="200" r="197" />
<path fill="rgba(45,45,18,1)" stroke="black" d="m 276.9,257.2 8.7,-57.1 h -54.6 v -37 c 0,-15.6 7.6,-30.9 32.1,-30.9 h 24.9 V 83.5 c 0,0 -22.5,-3.9 -44.1,-3.9 -45,0 -74.4,27.4 -74.4,76.9 v 43.5 h -50 v 57.1 h 50 v 138.1 c 10,1.6 20.3,2.4 30.8,2.4 10.5,0 20.7,-0.8 30.8,-2.4 V 257.2 Z" />
</g>


<summary>twitter 800</summary>
<g stroke-width="3" stroke="none" transform="translate(800,0)">
<circle fill="rgba(167,163,192,1)" cx="200" cy="200" r="197" />
<path stroke="black" fill="rgba(45,45,18,1)" stroke-width="5" d="M304.1 37.5h55.1l-120.45 137.7 141.7 187.3H269.5l-86.9-113.6L83.2 362.5H28l128.8-147.3L20.9 37.5H134.7l78.6 103.9zm-19.4 292h30.6L118.1 68.8H85.3z"/>
</g>

<summary>play 1200</summary>
<g fill="rgba(45,45,18,1)" stroke="black" transform="translate(1200,0)">
<path d="M 50,55 50,350 360,210 Z" />
</g>

<summary>varovani 1600</summary>
<g stroke-width="20" stroke-linecap="round" stroke-linejoin="round" stroke="rgba(45,45,18,1)" transform="translate(1600,0)">
<polygon points=" 40,385 360,385 200,40" />
<line x1="200" y1="160" x2="200" y2="280" />
<circle cx="200" cy="330" r="10"  />
</g>


<summary>videt 2000</summary>
<g stroke="rgba(45,45,18,1)" stroke-width="20" transform="translate(2000,0)">
<path d="M 385,210 C 274,80 155,34 13,209 c 100,93 200,179 372,1 z" />
<circle fill="rgba(45,45,18,1)" cx="197" cy="205" r="50" />
</g>


<summary>nevidet 2400</summary>
<g stroke="rgba(45,45,18,1)" stroke-width="20" transform="translate(2400,0)">
<path d="M 385,210 C 274,80 155,34 13,209 c 100,93 200,179 372,1 z" />
<circle fill="rgba(45,45,18,1)" cx="197" cy="205" r="50" />
<line stroke="rgba(167,163,192,1)" stroke-width="40" x1="0" y1="400" x2="400" y2="0" />
</g>

<summary>otaznik 2800</summary>
<g stroke-width="3" stroke="rgba(45,45,18,1)" transform="translate(2800,0)">
<circle cx="200" cy="200" r="197" />
<text fill="rgba(45,45,18,1)" style="font-style:normal;font-variant:normal;font-weight:bold;font-stretch:normal;font-size:350px;line-height:1.25;font-family:sans-serif;" x="97" y="334">?</text>
</g>

<summary>křížek 3200</summary>
<g stroke-linecap="round" stroke-width="50" transform="translate(3200,0)">
<line x1="50" y1="50" x2="350" y2="350" />
<line x1="350" y1="50" x2="50" y2="350" />
</g>

<summary>informace 3600</summary>
<g stroke-width="3" stroke="rgba(45,45,18,1)" transform="translate(3600,0)">
<circle cx="200" cy="200" r="197" />
<path stroke="black" fill="rgba(45,45,18,1)" d="m 132.8,151.5 h 135.4 v 35.4 h -40.6 v 107.3 h 40.6 v 35.4 H 132.8 v -35.4 h 40.6 V 186.9 h -40.6 z" />
<circle stroke="black" fill="rgba(45,45,18,1)" cx="200" cy="89" r="35" />
</g>

<summary>přehodit 4000</summary>
<g stroke-width="20" stroke="rgba(84,78,57,1)" stroke-linecap="round" stroke-linejoin="round" transform="translate(4000,0)">
<path d="M 324,313 A 160,160 0 0 1 126,366 160,160 0 0 1 39,180" />
<path d="M -73,-114 A 160,160 0 0 1 -272,-61 160,160 0 0 1 -359,-247" transform="scale(-1)" />
<g fill="rgba(84,78,57,1)">
<path d="m 73,114 37,-59 27,30 z" />
<path d="m 324,313 -54,27 27,28 27,-55" />
</g></g>


<summary>šifrovat 4400</summary>
<g stroke="rgba(45,45,18,1)" fill="rgba(45,45,18,1)" stroke-linecap="round" stroke-linejoin="round" transform="translate(4400,0)">
<circle cx="200" cy="200" r="25" />
<path d="M 62,58 162,155" />
<path d="M 62,58 72,97 100,67 Z" />
<path d="m 58,349 100,-96" />
<path d="m 58,349 10,-38 27,29 z" />
<path d="M 343,58 243,155" />
<path d="M 343,58 333,97 306,67 Z" />
<path d="m 245,200 h 106 l -33,15 v -31 l 33,16" />
<path d="M 158,200 H 53 l 33,15 v -31 l -33,16" />
<path d="M 343,349 244,252" />
<path d="m 343,349 -10,-38 -27,29 z" />
<path d="m 200,153 0,-105 -13,30 h 28 L 200,48" />
<path d="m 200,259 0,105 -13,-30 h 28 l -14,33" />
</g>

<summary>dešifrovat 4800</summary>
<g stroke="rgba(45,45,18,1)" fill="rgba(45,45,18,1)" stroke-linecap="round" stroke-linejoin="round" transform="translate(4800,0)">
<circle cx="200" cy="200" r="25" />
<path d="M 162,155 62,58" />
<path d="m 162,155 -10,-38 -27,29 z" />
<path d="M 158,253 58,349" />
<path d="m 158,253 -10,38 -27,-29 z" />
<path d="M 244,154 344,58" />
<path d="m 244,154 10,-38 27,29 z" />
<path d="M 350,200 H 245 l 33,15 v -30 l -31,14" />
<path d="M 52,200 H 158 l -33,15 v -30 l 31,14" />
<path d="m 244,253 100,96" />
<path d="m 244,253 10,38 27,-29 z" />
<path d="m 200,48 -2,105 -13,-30 h 28 l -14,32" />
<path d="m 200,358 -2,-105 -13,30 h 28 l -14,-32" />
</g>


<summary>vložit 5200</summary>
<g stroke="rgba(45,45,18,1)" stroke-width="5" transform="translate(5200,0)">
<rect fill="rgba(45,45,18,1)" x="40" y="45" width="235" height="250" />
<rect fill="rgba(144,140,129,1)" x="130" y="140" width="195" height="205" />
</g>

<summary>delete 5600</summary>
<g stroke="rgba(45,45,18,1)" fill="rgba(84,78,57,1)" stroke-width="10" transform="translate(5600,0)">
<path d="m 72,138 59,242 136,0 50,-243 z" />
<path d="M 61,90 C 149,4 236,7 323,93 Z" />
</g>

<summary>copy 6000</summary>
<g stroke="rgba(45,45,18,1)" stroke-width="5" transform="translate(6000,0)">
<rect fill="rgba(144,140,129,1)" width="195" height="205" x="40" y="45" />
<rect fill="rgba(45,45,18,1)" width="235" height="250" x="99" y="114" />
</g>

<summary>Boar-cz logo 6400</summary>
<g transform="translate(6400,0)">
<g stroke="black" fill="black" stroke-width="1">
<path d="M 94,91 C 55,84 46,65 37,27 27,76 23,101 57,143 Z" />
<path d="m 303,91 c 39,-7 48,-26 57,-64 10,49 14,74 -20,116 z" />
</g>
<g stroke="rgba(84,78,57,1)">
<circle cx="200" cy="200" r="150" />
<path d="m 200,50 c -109,89 -128,186 0,297" />
<path d="m 200,50 c 109,89 128,186 0,297" />
<path d="M 200,50 V 348" />
<path d="m 89,100 c 60,13 106,36 222,0" />
<path d="M 89,298 C 148,286 195,262 311,297" />
<path d="M 346,192 54,193" />
</g>
<g stroke="black" fill="black" stroke-width="1">
<circle cx="125" cy="195" r="25" />
<circle cx="275" cy="195" r="25" />
</g>
</g>

<summary>Reset 6800</summary>
<g transform="translate(6800,0)" stroke="black" stroke-linecap="round" stroke-linejoin="round" stroke-width="30">
<path d="M 137,354 A 146,156 0 0 1 66,179 146,156 0 0 1 208,62 146,156 0 0 1 349,179 146,156 0 0 1 279,354" />
<path d="m 205,260 0,95" />
</g>
</svg>